<svg t="1740138356282" class="icon" viewBox="0 0 1024 1024" version="1.1" xmlns="http://www.w3.org/2000/svg" p-id="11533" width="16" height="16"><path d="M307.2 674.1504v153.7024l144.4864-139.3664 14.848-14.336H512v51.2h-24.7808l-168.4992 162.56A37.1712 37.1712 0 0 1 256 861.44v-136.0896c-56.8832 0-85.3504-28.4672-85.3504-85.3504V256c0-56.8832 28.4672-85.3504 85.3504-85.3504h554.6496c56.9344 0 85.3504 28.4672 85.3504 85.3504v358.4h-51.2V256c0-20.5312-5.12-26.5728-6.3488-27.8016-1.2288-1.2288-7.2192-6.3488-27.8016-6.3488H256c-20.5312 0-26.5728 5.12-27.8016 6.3488-1.2288 1.2288-6.3488 7.2704-6.3488 27.8016v384c0 20.5312 5.12 26.5728 6.3488 27.8016 1.2288 1.2288 7.2704 6.3488 27.8016 6.3488h51.2zM374.6816 358.4h325.8368c10.8544 0 16.2816 8.5504 16.2816 25.6 0 17.0496-5.4272 25.6-16.2816 25.6H374.6816C363.8272 409.6 358.4 401.0496 358.4 384c0-17.0496 5.4272-25.6 16.2816-25.6z m0 153.6h325.8368c10.8544 0 16.2816 8.5504 16.2816 25.6 0 17.0496-5.4272 25.6-16.2816 25.6H374.6816C363.8272 563.2 358.4 554.6496 358.4 537.6c0-17.0496 5.4272-25.6 16.2816-25.6zM614.4 742.4a25.6 25.6 0 0 1 25.6-25.6H716.8v-76.8a25.6 25.6 0 0 1 51.2 0V716.8h76.8a25.6 25.6 0 0 1 0 51.2H768v76.8a25.6 25.6 0 0 1-51.2 0V768h-76.8a25.6 25.6 0 0 1-25.6-25.6z" fill="#dbdbdb" p-id="11534"></path></svg>