<svg t="1740139971143" class="icon" viewBox="0 0 1024 1024" version="1.1" xmlns="http://www.w3.org/2000/svg" p-id="14413" width="24" height="24"><path d="M471.744 769.504a327.744 327.744 0 0 1-149.536 29.408 244.096 244.096 0 0 1-189.248-75.072A284.032 284.032 0 0 1 64 523.808a303.232 303.232 0 0 1 77.504-215.936 262.912 262.912 0 0 1 201.12-82.816 356.832 356.832 0 0 1 129.12 20.512v120.352A218.848 218.848 0 0 0 352 332.64a154.016 154.016 0 0 0-118.784 49.12 188.8 188.8 0 0 0-45.216 133.088A185.6 185.6 0 0 0 230.688 643.2a146.24 146.24 0 0 0 114.88 47.776 234.208 234.208 0 0 0 126.176-35.616zM547.584 474.528v-75.008h75.008v75.008H697.6v74.976h-75.008v74.976h-75.008v-74.976H472.64v-75.008l74.944 0.032zM810.016 474.528v-75.008h75.008v75.008H960v74.976h-74.976v74.976h-75.008v-74.976h-74.944v-75.008l74.944 0.032z" fill="#ac6af0" p-id="14414" data-spm-anchor-id="a313x.search_index.0.i39.45b83a811G6HRe" class="selected"></path></svg>