<?xml version="1.0" standalone="no"?><!DOCTYPE svg PUBLIC "-//W3C//DTD SVG 1.1//EN" "http://www.w3.org/Graphics/SVG/1.1/DTD/svg11.dtd"><svg t="1740748683929" class="icon" viewBox="0 0 1024 1024" version="1.1" xmlns="http://www.w3.org/2000/svg" p-id="2631" xmlns:xlink="http://www.w3.org/1999/xlink" width="16" height="16"><path d="M748.717722 341.211468s10.456068 55.936306-20.180942 112.530686c-3.546289 6.617302-7.823771 13.198043-12.613089 19.742226-1.279589 1.754865-2.486058 3.473169-3.875326 5.228034a182.652148 182.652148 0 0 1-13.490521 15.026027c-1.937663 1.974223-3.802206 3.948445-5.922667 5.886108-4.789318 4.387161-9.834553 8.554964-15.026028 12.430291-1.718305 1.279589-3.582848 2.486058-5.374272 3.729087a215.811775 215.811775 0 0 1-20.473419 12.795887c-7.129137 3.875326-14.550752 7.677532-22.667 11.114142 4.423721-8.518405 8.335606-17.512085 11.991574-26.688565 0.950552-2.376379 1.827984-4.862437 2.705416-7.311935 2.705416-7.311935 5.118355-14.806669 7.311935-22.447642l1.901104-7.019458c2.486058-9.651755 4.606519-19.522868 6.215145-29.649898l0.109679-0.584955a346.256703 346.256703 0 0 0-2.595737-117.064087c-20.36374-104.560677-89.790567-220.454854-234.237852-328.598379 0 0 54.36424 74.216145 6.507622 198.519048C381.146727 323.150987 146.28736 353.239602 146.28736 680.046556c0 17.402406 2.376379 32.647792 6.142026 46.577029 17.658324 161.886251 165.907815 288.309615 346.183584 288.309615 192.157664 0 360.2225-165.542219 375.467885-338.213574 11.625977-131.212682-1.425827-241.29387-125.399693-335.508158" fill="#FD7C06" p-id="2632"></path></svg>