<svg t="1747187143988" class="icon" viewBox="0 0 1024 1024" version="1.1" xmlns="http://www.w3.org/2000/svg" p-id="1529" width="16" height="16"><path d="M869.973713 391.222061a51.174924 51.174924 0 0 1 51.174924 51.174924V870.475227a51.174924 51.174924 0 0 1-51.174924 51.174924H442.151346a51.174924 51.174924 0 0 1-51.174924-51.174924V442.396985a51.174924 51.174924 0 0 1 51.174924-51.174924H869.973713m0-102.349848H442.151346a153.524773 153.524773 0 0 0-153.524773 153.524772V870.475227a153.524773 153.524773 0 0 0 153.524773 153.524773H869.973713a153.524773 153.524773 0 0 0 153.524773-153.524773V442.396985a153.524773 153.524773 0 0 0-153.524773-153.524772zM0 429.859129a49.895551 49.895551 0 0 0 99.535228 0c0-185.764975 46.057432-245.383762 190.114843-245.383762h35.822447a49.383802 49.383802 0 0 0 0 69.597897 51.174924 51.174924 0 0 0 70.621396 0L470.553429 179.613749a64.736279 64.736279 0 0 0 0-91.603114L396.605663 14.830493a49.639677 49.639677 0 0 0-70.87727 69.853772h-35.822447C89.556118 84.684265 0 191.128107 0 429.859129z" p-id="1530" fill=""></path></svg>