<?xml version="1.0" standalone="no"?><!DOCTYPE svg PUBLIC "-//W3C//DTD SVG 1.1//EN" "http://www.w3.org/Graphics/SVG/1.1/DTD/svg11.dtd"><svg t="1740135667713" class="icon" viewBox="0 0 1024 1024" version="1.1" xmlns="http://www.w3.org/2000/svg" p-id="2611" width="24" height="24" xmlns:xlink="http://www.w3.org/1999/xlink"><path d="M360.2432 129.7408c37.0176-18.8928 79.36-24.2176 120.1664-26.112 29.7984-2.9184 59.5968 0 88.9344 2.4064 37.4784 4.8128 76.3904 13.5168 107.1616 36.7616 19.2 14.9504 34.6112 37.2224 34.6112 62.3616-0.512 64.256 0 128.5632-0.512 192.8704 0 28.0576-10.5472 56.576-31.744 75.4176-20.6336 17.92-47.5648 26.624-74.4448 28.0576H399.6672c-26.9312 0.512-54.784 8.192-74.9568 27.5456-24.5248 23.1936-35.072 58.0096-34.1504 91.3408 0 31.9488 0.512 63.8464 0 95.744-24.4736 0-48.9984 0.512-73.5232 0-32.6656-1.4336-61.0304-22.2208-78.848-48.8448-25.9072-40.6016-33.1264-89.3952-35.072-136.8064 0-7.68-2.3552-16.384 1.4848-24.1664-2.9184-5.3248-1.024-12.0832-1.024-17.92 2.4576-44.9024 11.1104-92.3136 39.424-128.512a114.944 114.944 0 0 1 96.6144-44.544c90.8288 0.512 181.6576 0 272.0256 0v-25.6H314.112c0-33.3824-0.512-66.7136-0.512-100.096 2.4576-27.5456 24.064-47.8208 46.6432-59.904m27.904 41.0624c-24.5248 8.704-29.3376 45.9264-7.68 60.416 20.6336 15.9744 54.272 0 54.784-26.112 2.8672-24.1664-24.9856-44.4416-47.104-34.304z" fill="#3774A7" p-id="2612"></path><path d="M735.5904 309.5552h61.0304c29.7984-2.4064 59.5968 11.6224 79.36 33.8432 30.72 35.328 39.8336 82.688 45.6192 127.6416v80.7424c-5.2736 44.4416-16.384 91.8528-48.5376 124.7232-21.6064 21.248-51.9168 34.304-82.176 32.8704-92.2624-0.512-184.576 0-277.2992 0v25.6h197.5296c0 32.4096 0 64.3072 0.4608 96.7168 0.9728 25.6-17.7664 46.3872-38.4 58.9824-38.9632 23.1936-85.6064 27.0336-129.3312 30.9248H491.9296c-45.1584-3.8912-92.7232-8.704-132.608-33.3824-24.576-14.4896-43.776-40.6016-44.6976-69.632 0.4608-64.256-0.512-128.512 0.4608-192.8704 0.512-26.5728 9.6256-53.6576 29.3376-72.0384 21.6064-20.2752 51.4048-29.4912 80.7424-30.9248h201.8304c27.8528 0 56.7296-9.216 75.9296-29.4912 21.6064-21.76 31.232-52.6848 32.2048-83.1488 0.512-32.8704 0-66.7136 0.512-100.5568m-120.1664 479.5904a36.9664 36.9664 0 0 0-21.1456 16.896c-9.6256 17.92-0.512 43.008 19.2 48.8448 20.6848 8.704 46.592-9.6768 45.1584-32.4096 2.4064-21.76-22.528-40.6016-43.2128-33.3312z" fill="#FFD140" p-id="2613"></path></svg>