<?xml version="1.0" standalone="no"?><!DOCTYPE svg PUBLIC "-//W3C//DTD SVG 1.1//EN" "http://www.w3.org/Graphics/SVG/1.1/DTD/svg11.dtd"><svg t="1742456597522" class="icon" viewBox="0 0 1024 1024" version="1.1" xmlns="http://www.w3.org/2000/svg" p-id="4582" xmlns:xlink="http://www.w3.org/1999/xlink" width="16" height="16"><path d="M640 0h-256C172.8 0 0 172.8 0 384v256c0 211.2 172.8 384 384 384h256c211.2 0 384-172.8 384-384v-256c0-211.2-172.8-384-384-384m0 64c176 0 320 144 320 320v256c0 176-144 320-320 320h-256C208 960 64 816 64 640v-256C64 208 208 64 384 64h256" fill="#333333" p-id="4583"></path><path d="M512 246.4c-147.2 0-265.6 118.4-265.6 265.6H201.6l73.6 112L352 512H310.4c0-112 89.6-201.6 201.6-201.6s201.6 89.6 201.6 201.6-89.6 201.6-201.6 201.6v64c147.2 0 265.6-118.4 265.6-265.6S659.2 246.4 512 246.4" fill="#333333" p-id="4584"></path><path d="M489.6 400h48v249.6H480v-160h-38.4V448h9.6c12.8 0 22.4-3.2 28.8-9.6 6.4-6.4 9.6-16 9.6-28.8v-9.6z" fill="#333333" p-id="4585"></path></svg>