<?xml version="1.0" standalone="no"?><!DOCTYPE svg PUBLIC "-//W3C//DTD SVG 1.1//EN" "http://www.w3.org/Graphics/SVG/1.1/DTD/svg11.dtd"><svg t="1740140343811" class="icon" viewBox="0 0 1024 1024" version="1.1" xmlns="http://www.w3.org/2000/svg" p-id="19205" xmlns:xlink="http://www.w3.org/1999/xlink" width="16" height="16"><path d="M42.666667 512C42.666667 252.8 252.8 42.666667 512 42.666667s469.333333 210.133333 469.333333 469.333333-210.133333 469.333333-469.333333 469.333333S42.666667 771.2 42.666667 512z m64 0a405.333333 405.333333 0 1 0 810.666666 0 405.333333 405.333333 0 0 0-810.666666 0z m584.448 17.664l-260.266667 201.514667a21.333333 21.333333 0 0 1-34.346667-16.853334v-404.48a21.333333 21.333333 0 0 1 34.432-16.768l260.266667 202.922667a21.333333 21.333333 0 0 1-0.085333 33.706667z" fill="#dbdbdb" p-id="19206"></path></svg>