<?xml version="1.0" standalone="no"?><!DOCTYPE svg PUBLIC "-//W3C//DTD SVG 1.1//EN" "http://www.w3.org/Graphics/SVG/1.1/DTD/svg11.dtd"><svg t="1740140763234" class="icon" viewBox="0 0 1117 1024" version="1.1" xmlns="http://www.w3.org/2000/svg" p-id="22187" id="mx_n_1740140763235" xmlns:xlink="http://www.w3.org/1999/xlink" width="17.453125" height="16"><path d="M884.363636 837.818182h-139.636363a46.545455 46.545455 0 0 1 0-93.090909h139.636363a139.636364 139.636364 0 0 0 31.650909-275.083637A46.545455 46.545455 0 0 1 880.64 418.909091 279.272727 279.272727 0 0 0 605.090909 93.090909a279.272727 279.272727 0 0 0-267.636364 199.68 46.545455 46.545455 0 0 1-42.821818 33.047273 209.454545 209.454545 0 0 0 7.912728 418.909091H372.363636a46.545455 46.545455 0 0 1 0 93.090909H302.545455a302.545455 302.545455 0 0 1-43.752728-601.832727A372.363636 372.363636 0 0 1 977.454545 372.363636v19.549091A232.727273 232.727273 0 0 1 884.363636 837.818182z m-279.272727 139.636363V465.454545a46.545455 46.545455 0 0 0-74.472727-37.236363l-186.181818 139.636363a46.545455 46.545455 0 0 0 55.854545 74.472728L512 558.545455v418.90909a46.545455 46.545455 0 0 0 93.090909 0z m176.872727-344.436363a46.545455 46.545455 0 0 0-9.309091-65.163637l-46.545454-34.90909A46.545455 46.545455 0 1 0 670.254545 605.090909l46.545455 34.909091a46.545455 46.545455 0 0 0 65.163636-9.309091z" fill="#dbdbdb" p-id="22188"></path></svg>